<svg id="visual" viewBox="0 0 900 600" width="900" height="600" xmlns="http://www.w3.org/2000/svg" xmlns:xlink="http://www.w3.org/1999/xlink" version="1.1"><rect width="900" height="600" fill="#ffffff"></rect><g><g transform="translate(717 228)"><path d="M102.8 -31.5C115 4.4 94.3 52.9 59.1 77.5C23.9 102.2 -25.8 103 -58.6 79.4C-91.5 55.9 -107.5 7.9 -94.9 -28.4C-82.4 -64.7 -41.2 -89.3 2 -90C45.2 -90.6 90.5 -67.4 102.8 -31.5Z" stroke="#b8285e" fill="none" stroke-width="20"></path></g><g transform="translate(646 539)"><path d="M88.5 -33.7C98.4 1.7 78.9 41.7 48 63.5C17.2 85.3 -25 88.9 -51.2 70C-77.4 51.1 -87.6 9.6 -76.4 -27.6C-65.2 -64.8 -32.6 -97.8 3.3 -98.9C39.3 -100 78.6 -69.2 88.5 -33.7Z" stroke="#b8285e" fill="none" stroke-width="20"></path></g><g transform="translate(36 455)"><path d="M52.8 -18.2C59.3 2.8 49.1 28.1 29.4 43.1C9.6 58.1 -19.6 62.7 -39.4 49.5C-59.2 36.2 -69.5 5.2 -61.3 -18.1C-53.2 -41.4 -26.6 -56.8 -1.7 -56.2C23.2 -55.7 46.3 -39.1 52.8 -18.2Z" stroke="#b8285e" fill="none" stroke-width="20"></path></g><g transform="translate(305 226)"><path d="M96 -29C108.4 6.9 91.3 54.6 59 77.1C26.8 99.5 -20.8 96.8 -49.9 74.3C-79 51.8 -89.7 9.6 -78.3 -24.9C-67 -59.5 -33.5 -86.3 4.2 -87.6C41.8 -89 83.6 -64.9 96 -29Z" stroke="#b8285e" fill="none" stroke-width="20"></path></g><g transform="translate(5 63)"><path d="M55.5 -18.5C64.5 9.6 59.2 41.9 39.3 57C19.4 72.2 -15.1 70.2 -36.8 53.7C-58.5 37.2 -67.5 6.2 -59.3 -20.9C-51 -48.1 -25.5 -71.3 -1.1 -70.9C23.3 -70.5 46.6 -46.6 55.5 -18.5Z" stroke="#b8285e" fill="none" stroke-width="20"></path></g><g transform="translate(335 590)"><path d="M57.2 -20.4C64.3 3.5 53.7 31.3 32.9 46.8C12.1 62.2 -18.7 65.2 -39.9 50.8C-61.1 36.4 -72.6 4.5 -64.3 -20.9C-56.1 -46.3 -28 -65.2 -1.5 -64.7C25 -64.2 50 -44.3 57.2 -20.4Z" stroke="#b8285e" fill="none" stroke-width="20"></path></g><g transform="translate(521 5)"><path d="M79.4 -26.8C91.9 12.8 83.5 58.1 54.1 81C24.6 104 -25.9 104.6 -58.8 80.7C-91.7 56.9 -107 8.6 -94.2 -31.3C-81.5 -71.2 -40.8 -102.6 -3.7 -101.4C33.4 -100.2 66.8 -66.4 79.4 -26.8Z" stroke="#b8285e" fill="none" stroke-width="20"></path></g></g></svg>