<svg id="visual" viewBox="0 0 900 600" width="900" height="600" xmlns="http://www.w3.org/2000/svg" xmlns:xlink="http://www.w3.org/1999/xlink" version="1.1"><rect x="0" y="0" width="900" height="600" fill="#FFFFFF"></rect><defs><linearGradient id="grad1_0" x1="33.3%" y1="0%" x2="100%" y2="100%"><stop offset="20%" stop-color="#ffffff" stop-opacity="1"></stop><stop offset="80%" stop-color="#ffffff" stop-opacity="1"></stop></linearGradient></defs><defs><linearGradient id="grad2_0" x1="0%" y1="0%" x2="66.7%" y2="100%"><stop offset="20%" stop-color="#ffffff" stop-opacity="1"></stop><stop offset="80%" stop-color="#ffffff" stop-opacity="1"></stop></linearGradient></defs><g transform="translate(900, 0)"><path d="M0 486.7C-49.5 447.4 -99 408 -161.9 390.8C-224.7 373.6 -301 378.6 -344.2 344.2C-387.4 309.8 -397.5 236.1 -415.7 172.2C-434 108.3 -460.4 54.1 -486.7 0L0 0Z" fill="#b8285e"></path></g><g transform="translate(0, 600)"><path d="M0 -486.7C70.3 -486.2 140.7 -485.7 186.3 -449.7C231.9 -413.7 252.7 -342.3 295.6 -295.6C338.4 -248.9 403.3 -226.9 438.8 -181.8C474.4 -136.6 480.6 -68.3 486.7 0L0 0Z" fill="#b8285e"></path></g></svg>