<svg id="visual" viewBox="0 0 900 600" width="900" height="600" xmlns="http://www.w3.org/2000/svg" xmlns:xlink="http://www.w3.org/1999/xlink" version="1.1"><rect x="0" y="0" width="900" height="600" fill="#fff"></rect><path d="M0 389L21.5 400.8C43 412.7 86 436.3 128.8 457.2C171.7 478 214.3 496 257.2 502.3C300 508.7 343 503.3 385.8 504.5C428.7 505.7 471.3 513.3 514.2 505.2C557 497 600 473 642.8 471.8C685.7 470.7 728.3 492.3 771.2 504.3C814 516.3 857 518.7 878.5 519.8L900 521L900 601L878.5 601C857 601 814 601 771.2 601C728.3 601 685.7 601 642.8 601C600 601 557 601 514.2 601C471.3 601 428.7 601 385.8 601C343 601 300 601 257.2 601C214.3 601 171.7 601 128.8 601C86 601 43 601 21.5 601L0 601Z" fill="#b8282f" stroke-linecap="round" stroke-linejoin="miter"></path></svg>