<svg id="visual" viewBox="0 0 900 600" width="900" height="600" xmlns="http://www.w3.org/2000/svg" xmlns:xlink="http://www.w3.org/1999/xlink" version="1.1"><rect x="0" y="0" width="900" height="600" fill="#fff"></rect><path d="M0 502L21.5 496.5C43 491 86 480 128.8 465C171.7 450 214.3 431 257.2 438.5C300 446 343 480 385.8 487.5C428.7 495 471.3 476 514.2 455C557 434 600 411 642.8 414C685.7 417 728.3 446 771.2 468.2C814 490.3 857 505.7 878.5 513.3L900 521L900 601L878.5 601C857 601 814 601 771.2 601C728.3 601 685.7 601 642.8 601C600 601 557 601 514.2 601C471.3 601 428.7 601 385.8 601C343 601 300 601 257.2 601C214.3 601 171.7 601 128.8 601C86 601 43 601 21.5 601L0 601Z" fill="#b8282f" stroke-linecap="round" stroke-linejoin="miter"></path></svg>